<svg xmlns="http://www.w3.org/2000/svg" class="calendar" version="1.1" viewBox="0,0 795,80">
<g xmlns="http://www.w3.org/2000/svg" transform="translate(0, 0)">
  <g transform="translate(0, 0)">
      <rect class="day" x="0" y="49" width="11" height="11" fill="#ebedf0" rx="2" ry="2"/>
      <rect class="day" x="0" y="64" width="11" height="11" fill="#ebedf0" rx="2" ry="2"/>
      <rect class="day" x="0" y="79" width="11" height="11" fill="#ebedf0" rx="2" ry="2"/>
      <rect class="day" x="0" y="94" width="11" height="11" fill="#ebedf0" rx="2" ry="2"/>
  </g>
  <g transform="translate(15, 0)">
      <rect class="day" x="0" y="4" width="11" height="11" fill="#9be9a8" rx="2" ry="2"/>
      <rect class="day" x="0" y="19" width="11" height="11" fill="#ebedf0" rx="2" ry="2"/>
      <rect class="day" x="0" y="34" width="11" height="11" fill="#ebedf0" rx="2" ry="2"/>
      <rect class="day" x="0" y="49" width="11" height="11" fill="#ebedf0" rx="2" ry="2"/>
      <rect class="day" x="0" y="64" width="11" height="11" fill="#ebedf0" rx="2" ry="2"/>
      <rect class="day" x="0" y="79" width="11" height="11" fill="#9be9a8" rx="2" ry="2"/>
      <rect class="day" x="0" y="94" width="11" height="11" fill="#9be9a8" rx="2" ry="2"/>
  </g>
  <g transform="translate(30, 0)">
      <rect class="day" x="0" y="4" width="11" height="11" fill="#216e39" rx="2" ry="2"/>
      <rect class="day" x="0" y="19" width="11" height="11" fill="#9be9a8" rx="2" ry="2"/>
      <rect class="day" x="0" y="34" width="11" height="11" fill="#9be9a8" rx="2" ry="2"/>
      <rect class="day" x="0" y="49" width="11" height="11" fill="#9be9a8" rx="2" ry="2"/>
      <rect class="day" x="0" y="64" width="11" height="11" fill="#9be9a8" rx="2" ry="2"/>
      <rect class="day" x="0" y="79" width="11" height="11" fill="#9be9a8" rx="2" ry="2"/>
      <rect class="day" x="0" y="94" width="11" height="11" fill="#216e39" rx="2" ry="2"/>
  </g>
  <g transform="translate(45, 0)">
      <rect class="day" x="0" y="4" width="11" height="11" fill="#216e39" rx="2" ry="2"/>
      <rect class="day" x="0" y="19" width="11" height="11" fill="#216e39" rx="2" ry="2"/>
      <rect class="day" x="0" y="34" width="11" height="11" fill="#216e39" rx="2" ry="2"/>
      <rect class="day" x="0" y="49" width="11" height="11" fill="#216e39" rx="2" ry="2"/>
      <rect class="day" x="0" y="64" width="11" height="11" fill="#216e39" rx="2" ry="2"/>
      <rect class="day" x="0" y="79" width="11" height="11" fill="#216e39" rx="2" ry="2"/>
      <rect class="day" x="0" y="94" width="11" height="11" fill="#216e39" rx="2" ry="2"/>
  </g>
  <g transform="translate(60, 0)">
      <rect class="day" x="0" y="4" width="11" height="11" fill="#216e39" rx="2" ry="2"/>
      <rect class="day" x="0" y="19" width="11" height="11" fill="#ebedf0" rx="2" ry="2"/>
      <rect class="day" x="0" y="34" width="11" height="11" fill="#ebedf0" rx="2" ry="2"/>
      <rect class="day" x="0" y="49" width="11" height="11" fill="#ebedf0" rx="2" ry="2"/>
      <rect class="day" x="0" y="64" width="11" height="11" fill="#ebedf0" rx="2" ry="2"/>
      <rect class="day" x="0" y="79" width="11" height="11" fill="#9be9a8" rx="2" ry="2"/>
      <rect class="day" x="0" y="94" width="11" height="11" fill="#216e39" rx="2" ry="2"/>
  </g>
  <g transform="translate(75, 0)">
      <rect class="day" x="0" y="4" width="11" height="11" fill="#ebedf0" rx="2" ry="2"/>
      <rect class="day" x="0" y="19" width="11" height="11" fill="#ebedf0" rx="2" ry="2"/>
      <rect class="day" x="0" y="34" width="11" height="11" fill="#ebedf0" rx="2" ry="2"/>
      <rect class="day" x="0" y="49" width="11" height="11" fill="#ebedf0" rx="2" ry="2"/>
      <rect class="day" x="0" y="64" width="11" height="11" fill="#ebedf0" rx="2" ry="2"/>
      <rect class="day" x="0" y="79" width="11" height="11" fill="#ebedf0" rx="2" ry="2"/>
      <rect class="day" x="0" y="94" width="11" height="11" fill="#ebedf0" rx="2" ry="2"/>
  </g>
  <g transform="translate(90, 0)">
      <rect class="day" x="0" y="4" width="11" height="11" fill="#ebedf0" rx="2" ry="2"/>
      <rect class="day" x="0" y="19" width="11" height="11" fill="#9be9a8" rx="2" ry="2"/>
      <rect class="day" x="0" y="34" width="11" height="11" fill="#9be9a8" rx="2" ry="2"/>
      <rect class="day" x="0" y="49" width="11" height="11" fill="#9be9a8" rx="2" ry="2"/>
      <rect class="day" x="0" y="64" width="11" height="11" fill="#9be9a8" rx="2" ry="2"/>
      <rect class="day" x="0" y="79" width="11" height="11" fill="#9be9a8" rx="2" ry="2"/>
      <rect class="day" x="0" y="94" width="11" height="11" fill="#9be9a8" rx="2" ry="2"/>
  </g>
  <g transform="translate(105, 0)">
      <rect class="day" x="0" y="4" width="11" height="11" fill="#ebedf0" rx="2" ry="2"/>
      <rect class="day" x="0" y="19" width="11" height="11" fill="#9be9a8" rx="2" ry="2"/>
      <rect class="day" x="0" y="34" width="11" height="11" fill="#216e39" rx="2" ry="2"/>
      <rect class="day" x="0" y="49" width="11" height="11" fill="#216e39" rx="2" ry="2"/>
      <rect class="day" x="0" y="64" width="11" height="11" fill="#216e39" rx="2" ry="2"/>
      <rect class="day" x="0" y="79" width="11" height="11" fill="#216e39" rx="2" ry="2"/>
      <rect class="day" x="0" y="94" width="11" height="11" fill="#216e39" rx="2" ry="2"/>
  </g>
  <g transform="translate(120, 0)">
      <rect class="day" x="0" y="4" width="11" height="11" fill="#ebedf0" rx="2" ry="2"/>
      <rect class="day" x="0" y="19" width="11" height="11" fill="#ebedf0" rx="2" ry="2"/>
      <rect class="day" x="0" y="34" width="11" height="11" fill="#ebedf0" rx="2" ry="2"/>
      <rect class="day" x="0" y="49" width="11" height="11" fill="#ebedf0" rx="2" ry="2"/>
      <rect class="day" x="0" y="64" width="11" height="11" fill="#ebedf0" rx="2" ry="2"/>
      <rect class="day" x="0" y="79" width="11" height="11" fill="#9be9a8" rx="2" ry="2"/>
      <rect class="day" x="0" y="94" width="11" height="11" fill="#216e39" rx="2" ry="2"/>
  </g>
  <g transform="translate(135, 0)">
      <rect class="day" x="0" y="4" width="11" height="11" fill="#ebedf0" rx="2" ry="2"/>
      <rect class="day" x="0" y="19" width="11" height="11" fill="#ebedf0" rx="2" ry="2"/>
      <rect class="day" x="0" y="34" width="11" height="11" fill="#ebedf0" rx="2" ry="2"/>
      <rect class="day" x="0" y="49" width="11" height="11" fill="#ebedf0" rx="2" ry="2"/>
      <rect class="day" x="0" y="64" width="11" height="11" fill="#ebedf0" rx="2" ry="2"/>
      <rect class="day" x="0" y="79" width="11" height="11" fill="#9be9a8" rx="2" ry="2"/>
      <rect class="day" x="0" y="94" width="11" height="11" fill="#216e39" rx="2" ry="2"/>
  </g>
  <g transform="translate(150, 0)">
      <rect class="day" x="0" y="4" width="11" height="11" fill="#ebedf0" rx="2" ry="2"/>
      <rect class="day" x="0" y="19" width="11" height="11" fill="#9be9a8" rx="2" ry="2"/>
      <rect class="day" x="0" y="34" width="11" height="11" fill="#9be9a8" rx="2" ry="2"/>
      <rect class="day" x="0" y="49" width="11" height="11" fill="#9be9a8" rx="2" ry="2"/>
      <rect class="day" x="0" y="64" width="11" height="11" fill="#40c463" rx="2" ry="2"/>
      <rect class="day" x="0" y="79" width="11" height="11" fill="#40c463" rx="2" ry="2"/>
      <rect class="day" x="0" y="94" width="11" height="11" fill="#40c463" rx="2" ry="2"/>
  </g>
  <g transform="translate(165, 0)">
      <rect class="day" x="0" y="4" width="11" height="11" fill="#ebedf0" rx="2" ry="2"/>
      <rect class="day" x="0" y="19" width="11" height="11" fill="#9be9a8" rx="2" ry="2"/>
      <rect class="day" x="0" y="34" width="11" height="11" fill="#216e39" rx="2" ry="2"/>
      <rect class="day" x="0" y="49" width="11" height="11" fill="#216e39" rx="2" ry="2"/>
      <rect class="day" x="0" y="64" width="11" height="11" fill="#216e39" rx="2" ry="2"/>
      <rect class="day" x="0" y="79" width="11" height="11" fill="#216e39" rx="2" ry="2"/>
      <rect class="day" x="0" y="94" width="11" height="11" fill="#216e39" rx="2" ry="2"/>
  </g>
  <g transform="translate(180, 0)">
      <rect class="day" x="0" y="4" width="11" height="11" fill="#ebedf0" rx="2" ry="2"/>
      <rect class="day" x="0" y="19" width="11" height="11" fill="#9be9a8" rx="2" ry="2"/>
      <rect class="day" x="0" y="34" width="11" height="11" fill="#216e39" rx="2" ry="2"/>
      <rect class="day" x="0" y="49" width="11" height="11" fill="#9be9a8" rx="2" ry="2"/>
      <rect class="day" x="0" y="64" width="11" height="11" fill="#9be9a8" rx="2" ry="2"/>
      <rect class="day" x="0" y="79" width="11" height="11" fill="#40c463" rx="2" ry="2"/>
      <rect class="day" x="0" y="94" width="11" height="11" fill="#216e39" rx="2" ry="2"/>
  </g>
  <g transform="translate(195, 0)">
      <rect class="day" x="0" y="4" width="11" height="11" fill="#ebedf0" rx="2" ry="2"/>
      <rect class="day" x="0" y="19" width="11" height="11" fill="#9be9a8" rx="2" ry="2"/>
      <rect class="day" x="0" y="34" width="11" height="11" fill="#30a14e" rx="2" ry="2"/>
      <rect class="day" x="0" y="49" width="11" height="11" fill="#30a14e" rx="2" ry="2"/>
      <rect class="day" x="0" y="64" width="11" height="11" fill="#216e39" rx="2" ry="2"/>
      <rect class="day" x="0" y="79" width="11" height="11" fill="#216e39" rx="2" ry="2"/>
      <rect class="day" x="0" y="94" width="11" height="11" fill="#30a14e" rx="2" ry="2"/>
  </g>
  <g transform="translate(210, 0)">
      <rect class="day" x="0" y="4" width="11" height="11" fill="#ebedf0" rx="2" ry="2"/>
      <rect class="day" x="0" y="19" width="11" height="11" fill="#9be9a8" rx="2" ry="2"/>
      <rect class="day" x="0" y="34" width="11" height="11" fill="#9be9a8" rx="2" ry="2"/>
      <rect class="day" x="0" y="49" width="11" height="11" fill="#9be9a8" rx="2" ry="2"/>
      <rect class="day" x="0" y="64" width="11" height="11" fill="#ebedf0" rx="2" ry="2"/>
      <rect class="day" x="0" y="79" width="11" height="11" fill="#ebedf0" rx="2" ry="2"/>
      <rect class="day" x="0" y="94" width="11" height="11" fill="#ebedf0" rx="2" ry="2"/>
  </g>
  <g transform="translate(225, 0)">
      <rect class="day" x="0" y="4" width="11" height="11" fill="#ebedf0" rx="2" ry="2"/>
      <rect class="day" x="0" y="19" width="11" height="11" fill="#9be9a8" rx="2" ry="2"/>
      <rect class="day" x="0" y="34" width="11" height="11" fill="#30a14e" rx="2" ry="2"/>
      <rect class="day" x="0" y="49" width="11" height="11" fill="#30a14e" rx="2" ry="2"/>
      <rect class="day" x="0" y="64" width="11" height="11" fill="#40c463" rx="2" ry="2"/>
      <rect class="day" x="0" y="79" width="11" height="11" fill="#40c463" rx="2" ry="2"/>
      <rect class="day" x="0" y="94" width="11" height="11" fill="#ebedf0" rx="2" ry="2"/>
  </g>
  <g transform="translate(240, 0)">
      <rect class="day" x="0" y="4" width="11" height="11" fill="#ebedf0" rx="2" ry="2"/>
      <rect class="day" x="0" y="19" width="11" height="11" fill="#ebedf0" rx="2" ry="2"/>
      <rect class="day" x="0" y="34" width="11" height="11" fill="#ebedf0" rx="2" ry="2"/>
      <rect class="day" x="0" y="49" width="11" height="11" fill="#ebedf0" rx="2" ry="2"/>
      <rect class="day" x="0" y="64" width="11" height="11" fill="#216e39" rx="2" ry="2"/>
      <rect class="day" x="0" y="79" width="11" height="11" fill="#216e39" rx="2" ry="2"/>
      <rect class="day" x="0" y="94" width="11" height="11" fill="#9be9a8" rx="2" ry="2"/>
  </g>
  <g transform="translate(255, 0)">
      <rect class="day" x="0" y="4" width="11" height="11" fill="#ebedf0" rx="2" ry="2"/>
      <rect class="day" x="0" y="19" width="11" height="11" fill="#ebedf0" rx="2" ry="2"/>
      <rect class="day" x="0" y="34" width="11" height="11" fill="#ebedf0" rx="2" ry="2"/>
      <rect class="day" x="0" y="49" width="11" height="11" fill="#ebedf0" rx="2" ry="2"/>
      <rect class="day" x="0" y="64" width="11" height="11" fill="#40c463" rx="2" ry="2"/>
      <rect class="day" x="0" y="79" width="11" height="11" fill="#40c463" rx="2" ry="2"/>
      <rect class="day" x="0" y="94" width="11" height="11" fill="#30a14e" rx="2" ry="2"/>
  </g>
  <g transform="translate(270, 0)">
      <rect class="day" x="0" y="4" width="11" height="11" fill="#ebedf0" rx="2" ry="2"/>
      <rect class="day" x="0" y="19" width="11" height="11" fill="#9be9a8" rx="2" ry="2"/>
      <rect class="day" x="0" y="34" width="11" height="11" fill="#30a14e" rx="2" ry="2"/>
      <rect class="day" x="0" y="49" width="11" height="11" fill="#30a14e" rx="2" ry="2"/>
      <rect class="day" x="0" y="64" width="11" height="11" fill="#216e39" rx="2" ry="2"/>
      <rect class="day" x="0" y="79" width="11" height="11" fill="#216e39" rx="2" ry="2"/>
      <rect class="day" x="0" y="94" width="11" height="11" fill="#ebedf0" rx="2" ry="2"/>
  </g>
  <g transform="translate(285, 0)">
      <rect class="day" x="0" y="4" width="11" height="11" fill="#ebedf0" rx="2" ry="2"/>
      <rect class="day" x="0" y="19" width="11" height="11" fill="#9be9a8" rx="2" ry="2"/>
      <rect class="day" x="0" y="34" width="11" height="11" fill="#30a14e" rx="2" ry="2"/>
      <rect class="day" x="0" y="49" width="11" height="11" fill="#30a14e" rx="2" ry="2"/>
      <rect class="day" x="0" y="64" width="11" height="11" fill="#9be9a8" rx="2" ry="2"/>
      <rect class="day" x="0" y="79" width="11" height="11" fill="#9be9a8" rx="2" ry="2"/>
      <rect class="day" x="0" y="94" width="11" height="11" fill="#ebedf0" rx="2" ry="2"/>
  </g>
  <g transform="translate(300, 0)">
      <rect class="day" x="0" y="4" width="11" height="11" fill="#ebedf0" rx="2" ry="2"/>
      <rect class="day" x="0" y="19" width="11" height="11" fill="#9be9a8" rx="2" ry="2"/>
      <rect class="day" x="0" y="34" width="11" height="11" fill="#40c463" rx="2" ry="2"/>
      <rect class="day" x="0" y="49" width="11" height="11" fill="#40c463" rx="2" ry="2"/>
      <rect class="day" x="0" y="64" width="11" height="11" fill="#30a14e" rx="2" ry="2"/>
      <rect class="day" x="0" y="79" width="11" height="11" fill="#30a14e" rx="2" ry="2"/>
      <rect class="day" x="0" y="94" width="11" height="11" fill="#40c463" rx="2" ry="2"/>
  </g>
  <g transform="translate(315, 0)">
      <rect class="day" x="0" y="4" width="11" height="11" fill="#ebedf0" rx="2" ry="2"/>
      <rect class="day" x="0" y="19" width="11" height="11" fill="#9be9a8" rx="2" ry="2"/>
      <rect class="day" x="0" y="34" width="11" height="11" fill="#216e39" rx="2" ry="2"/>
      <rect class="day" x="0" y="49" width="11" height="11" fill="#30a14e" rx="2" ry="2"/>
      <rect class="day" x="0" y="64" width="11" height="11" fill="#216e39" rx="2" ry="2"/>
      <rect class="day" x="0" y="79" width="11" height="11" fill="#30a14e" rx="2" ry="2"/>
      <rect class="day" x="0" y="94" width="11" height="11" fill="#216e39" rx="2" ry="2"/>
  </g>
  <g transform="translate(330, 0)">
      <rect class="day" x="0" y="4" width="11" height="11" fill="#ebedf0" rx="2" ry="2"/>
      <rect class="day" x="0" y="19" width="11" height="11" fill="#9be9a8" rx="2" ry="2"/>
      <rect class="day" x="0" y="34" width="11" height="11" fill="#216e39" rx="2" ry="2"/>
      <rect class="day" x="0" y="49" width="11" height="11" fill="#ebedf0" rx="2" ry="2"/>
      <rect class="day" x="0" y="64" width="11" height="11" fill="#30a14e" rx="2" ry="2"/>
      <rect class="day" x="0" y="79" width="11" height="11" fill="#ebedf0" rx="2" ry="2"/>
      <rect class="day" x="0" y="94" width="11" height="11" fill="#216e39" rx="2" ry="2"/>
  </g>
  <g transform="translate(345, 0)">
      <rect class="day" x="0" y="4" width="11" height="11" fill="#ebedf0" rx="2" ry="2"/>
      <rect class="day" x="0" y="19" width="11" height="11" fill="#9be9a8" rx="2" ry="2"/>
      <rect class="day" x="0" y="34" width="11" height="11" fill="#30a14e" rx="2" ry="2"/>
      <rect class="day" x="0" y="49" width="11" height="11" fill="#ebedf0" rx="2" ry="2"/>
      <rect class="day" x="0" y="64" width="11" height="11" fill="#ebedf0" rx="2" ry="2"/>
      <rect class="day" x="0" y="79" width="11" height="11" fill="#ebedf0" rx="2" ry="2"/>
      <rect class="day" x="0" y="94" width="11" height="11" fill="#30a14e" rx="2" ry="2"/>
  </g>
  <g transform="translate(360, 0)">
      <rect class="day" x="0" y="4" width="11" height="11" fill="#ebedf0" rx="2" ry="2"/>
      <rect class="day" x="0" y="19" width="11" height="11" fill="#ebedf0" rx="2" ry="2"/>
      <rect class="day" x="0" y="34" width="11" height="11" fill="#ebedf0" rx="2" ry="2"/>
      <rect class="day" x="0" y="49" width="11" height="11" fill="#ebedf0" rx="2" ry="2"/>
      <rect class="day" x="0" y="64" width="11" height="11" fill="#ebedf0" rx="2" ry="2"/>
      <rect class="day" x="0" y="79" width="11" height="11" fill="#ebedf0" rx="2" ry="2"/>
      <rect class="day" x="0" y="94" width="11" height="11" fill="#ebedf0" rx="2" ry="2"/>
  </g>
  <g transform="translate(375, 0)">
      <rect class="day" x="0" y="4" width="11" height="11" fill="#ebedf0" rx="2" ry="2"/>
      <rect class="day" x="0" y="19" width="11" height="11" fill="#9be9a8" rx="2" ry="2"/>
      <rect class="day" x="0" y="34" width="11" height="11" fill="#9be9a8" rx="2" ry="2"/>
      <rect class="day" x="0" y="49" width="11" height="11" fill="#9be9a8" rx="2" ry="2"/>
      <rect class="day" x="0" y="64" width="11" height="11" fill="#9be9a8" rx="2" ry="2"/>
      <rect class="day" x="0" y="79" width="11" height="11" fill="#ebedf0" rx="2" ry="2"/>
      <rect class="day" x="0" y="94" width="11" height="11" fill="#ebedf0" rx="2" ry="2"/>
  </g>
  <g transform="translate(390, 0)">
      <rect class="day" x="0" y="4" width="11" height="11" fill="#ebedf0" rx="2" ry="2"/>
      <rect class="day" x="0" y="19" width="11" height="11" fill="#9be9a8" rx="2" ry="2"/>
      <rect class="day" x="0" y="34" width="11" height="11" fill="#30a14e" rx="2" ry="2"/>
      <rect class="day" x="0" y="49" width="11" height="11" fill="#30a14e" rx="2" ry="2"/>
      <rect class="day" x="0" y="64" width="11" height="11" fill="#30a14e" rx="2" ry="2"/>
      <rect class="day" x="0" y="79" width="11" height="11" fill="#9be9a8" rx="2" ry="2"/>
      <rect class="day" x="0" y="94" width="11" height="11" fill="#9be9a8" rx="2" ry="2"/>
  </g>
  <g transform="translate(405, 0)">
      <rect class="day" x="0" y="4" width="11" height="11" fill="#ebedf0" rx="2" ry="2"/>
      <rect class="day" x="0" y="19" width="11" height="11" fill="#9be9a8" rx="2" ry="2"/>
      <rect class="day" x="0" y="34" width="11" height="11" fill="#30a14e" rx="2" ry="2"/>
      <rect class="day" x="0" y="49" width="11" height="11" fill="#30a14e" rx="2" ry="2"/>
      <rect class="day" x="0" y="64" width="11" height="11" fill="#30a14e" rx="2" ry="2"/>
      <rect class="day" x="0" y="79" width="11" height="11" fill="#216e39" rx="2" ry="2"/>
      <rect class="day" x="0" y="94" width="11" height="11" fill="#216e39" rx="2" ry="2"/>
  </g>
  <g transform="translate(420, 0)">
      <rect class="day" x="0" y="4" width="11" height="11" fill="#ebedf0" rx="2" ry="2"/>
      <rect class="day" x="0" y="19" width="11" height="11" fill="#9be9a8" rx="2" ry="2"/>
      <rect class="day" x="0" y="34" width="11" height="11" fill="#216e39" rx="2" ry="2"/>
      <rect class="day" x="0" y="49" width="11" height="11" fill="#216e39" rx="2" ry="2"/>
      <rect class="day" x="0" y="64" width="11" height="11" fill="#216e39" rx="2" ry="2"/>
      <rect class="day" x="0" y="79" width="11" height="11" fill="#40c463" rx="2" ry="2"/>
      <rect class="day" x="0" y="94" width="11" height="11" fill="#9be9a8" rx="2" ry="2"/>
  </g>
  <g transform="translate(435, 0)">
      <rect class="day" x="0" y="4" width="11" height="11" fill="#ebedf0" rx="2" ry="2"/>
      <rect class="day" x="0" y="19" width="11" height="11" fill="#9be9a8" rx="2" ry="2"/>
      <rect class="day" x="0" y="34" width="11" height="11" fill="#30a14e" rx="2" ry="2"/>
      <rect class="day" x="0" y="49" width="11" height="11" fill="#30a14e" rx="2" ry="2"/>
      <rect class="day" x="0" y="64" width="11" height="11" fill="#40c463" rx="2" ry="2"/>
      <rect class="day" x="0" y="79" width="11" height="11" fill="#9be9a8" rx="2" ry="2"/>
      <rect class="day" x="0" y="94" width="11" height="11" fill="#9be9a8" rx="2" ry="2"/>
  </g>
  <g transform="translate(450, 0)">
      <rect class="day" x="0" y="4" width="11" height="11" fill="#ebedf0" rx="2" ry="2"/>
      <rect class="day" x="0" y="19" width="11" height="11" fill="#9be9a8" rx="2" ry="2"/>
      <rect class="day" x="0" y="34" width="11" height="11" fill="#216e39" rx="2" ry="2"/>
      <rect class="day" x="0" y="49" width="11" height="11" fill="#216e39" rx="2" ry="2"/>
      <rect class="day" x="0" y="64" width="11" height="11" fill="#216e39" rx="2" ry="2"/>
      <rect class="day" x="0" y="79" width="11" height="11" fill="#216e39" rx="2" ry="2"/>
      <rect class="day" x="0" y="94" width="11" height="11" fill="#216e39" rx="2" ry="2"/>
  </g>
  <g transform="translate(465, 0)">
      <rect class="day" x="0" y="4" width="11" height="11" fill="#ebedf0" rx="2" ry="2"/>
      <rect class="day" x="0" y="19" width="11" height="11" fill="#9be9a8" rx="2" ry="2"/>
      <rect class="day" x="0" y="34" width="11" height="11" fill="#216e39" rx="2" ry="2"/>
      <rect class="day" x="0" y="49" width="11" height="11" fill="#40c463" rx="2" ry="2"/>
      <rect class="day" x="0" y="64" width="11" height="11" fill="#40c463" rx="2" ry="2"/>
      <rect class="day" x="0" y="79" width="11" height="11" fill="#40c463" rx="2" ry="2"/>
      <rect class="day" x="0" y="94" width="11" height="11" fill="#216e39" rx="2" ry="2"/>
  </g>
  <g transform="translate(480, 0)">
      <rect class="day" x="0" y="4" width="11" height="11" fill="#ebedf0" rx="2" ry="2"/>
      <rect class="day" x="0" y="19" width="11" height="11" fill="#9be9a8" rx="2" ry="2"/>
      <rect class="day" x="0" y="34" width="11" height="11" fill="#216e39" rx="2" ry="2"/>
      <rect class="day" x="0" y="49" width="11" height="11" fill="#216e39" rx="2" ry="2"/>
      <rect class="day" x="0" y="64" width="11" height="11" fill="#30a14e" rx="2" ry="2"/>
      <rect class="day" x="0" y="79" width="11" height="11" fill="#30a14e" rx="2" ry="2"/>
      <rect class="day" x="0" y="94" width="11" height="11" fill="#216e39" rx="2" ry="2"/>
  </g>
  <g transform="translate(495, 0)">
      <rect class="day" x="0" y="4" width="11" height="11" fill="#ebedf0" rx="2" ry="2"/>
      <rect class="day" x="0" y="19" width="11" height="11" fill="#9be9a8" rx="2" ry="2"/>
      <rect class="day" x="0" y="34" width="11" height="11" fill="#40c463" rx="2" ry="2"/>
      <rect class="day" x="0" y="49" width="11" height="11" fill="#40c463" rx="2" ry="2"/>
      <rect class="day" x="0" y="64" width="11" height="11" fill="#40c463" rx="2" ry="2"/>
      <rect class="day" x="0" y="79" width="11" height="11" fill="#40c463" rx="2" ry="2"/>
      <rect class="day" x="0" y="94" width="11" height="11" fill="#40c463" rx="2" ry="2"/>
  </g>
  <g transform="translate(510, 0)">
      <rect class="day" x="0" y="4" width="11" height="11" fill="#ebedf0" rx="2" ry="2"/>
      <rect class="day" x="0" y="19" width="11" height="11" fill="#9be9a8" rx="2" ry="2"/>
      <rect class="day" x="0" y="34" width="11" height="11" fill="#216e39" rx="2" ry="2"/>
      <rect class="day" x="0" y="49" width="11" height="11" fill="#216e39" rx="2" ry="2"/>
      <rect class="day" x="0" y="64" width="11" height="11" fill="#216e39" rx="2" ry="2"/>
      <rect class="day" x="0" y="79" width="11" height="11" fill="#216e39" rx="2" ry="2"/>
      <rect class="day" x="0" y="94" width="11" height="11" fill="#216e39" rx="2" ry="2"/>
  </g>
  <g transform="translate(525, 0)">
      <rect class="day" x="0" y="4" width="11" height="11" fill="#ebedf0" rx="2" ry="2"/>
      <rect class="day" x="0" y="19" width="11" height="11" fill="#9be9a8" rx="2" ry="2"/>
      <rect class="day" x="0" y="34" width="11" height="11" fill="#9be9a8" rx="2" ry="2"/>
      <rect class="day" x="0" y="49" width="11" height="11" fill="#40c463" rx="2" ry="2"/>
      <rect class="day" x="0" y="64" width="11" height="11" fill="#9be9a8" rx="2" ry="2"/>
      <rect class="day" x="0" y="79" width="11" height="11" fill="#9be9a8" rx="2" ry="2"/>
      <rect class="day" x="0" y="94" width="11" height="11" fill="#216e39" rx="2" ry="2"/>
  </g>
  <g transform="translate(540, 0)">
      <rect class="day" x="0" y="4" width="11" height="11" fill="#ebedf0" rx="2" ry="2"/>
      <rect class="day" x="0" y="19" width="11" height="11" fill="#9be9a8" rx="2" ry="2"/>
      <rect class="day" x="0" y="34" width="11" height="11" fill="#216e39" rx="2" ry="2"/>
      <rect class="day" x="0" y="49" width="11" height="11" fill="#216e39" rx="2" ry="2"/>
      <rect class="day" x="0" y="64" width="11" height="11" fill="#216e39" rx="2" ry="2"/>
      <rect class="day" x="0" y="79" width="11" height="11" fill="#216e39" rx="2" ry="2"/>
      <rect class="day" x="0" y="94" width="11" height="11" fill="#216e39" rx="2" ry="2"/>
  </g>
  <g transform="translate(555, 0)">
      <rect class="day" x="0" y="4" width="11" height="11" fill="#ebedf0" rx="2" ry="2"/>
      <rect class="day" x="0" y="19" width="11" height="11" fill="#ebedf0" rx="2" ry="2"/>
      <rect class="day" x="0" y="34" width="11" height="11" fill="#9be9a8" rx="2" ry="2"/>
      <rect class="day" x="0" y="49" width="11" height="11" fill="#9be9a8" rx="2" ry="2"/>
      <rect class="day" x="0" y="64" width="11" height="11" fill="#9be9a8" rx="2" ry="2"/>
      <rect class="day" x="0" y="79" width="11" height="11" fill="#9be9a8" rx="2" ry="2"/>
      <rect class="day" x="0" y="94" width="11" height="11" fill="#9be9a8" rx="2" ry="2"/>
  </g>
  <g transform="translate(570, 0)">
      <rect class="day" x="0" y="4" width="11" height="11" fill="#9be9a8" rx="2" ry="2"/>
      <rect class="day" x="0" y="19" width="11" height="11" fill="#9be9a8" rx="2" ry="2"/>
      <rect class="day" x="0" y="34" width="11" height="11" fill="#9be9a8" rx="2" ry="2"/>
      <rect class="day" x="0" y="49" width="11" height="11" fill="#9be9a8" rx="2" ry="2"/>
      <rect class="day" x="0" y="64" width="11" height="11" fill="#9be9a8" rx="2" ry="2"/>
      <rect class="day" x="0" y="79" width="11" height="11" fill="#9be9a8" rx="2" ry="2"/>
      <rect class="day" x="0" y="94" width="11" height="11" fill="#9be9a8" rx="2" ry="2"/>
  </g>
  <g transform="translate(585, 0)">
      <rect class="day" x="0" y="4" width="11" height="11" fill="#9be9a8" rx="2" ry="2"/>
      <rect class="day" x="0" y="19" width="11" height="11" fill="#216e39" rx="2" ry="2"/>
      <rect class="day" x="0" y="34" width="11" height="11" fill="#216e39" rx="2" ry="2"/>
      <rect class="day" x="0" y="49" width="11" height="11" fill="#216e39" rx="2" ry="2"/>
      <rect class="day" x="0" y="64" width="11" height="11" fill="#216e39" rx="2" ry="2"/>
      <rect class="day" x="0" y="79" width="11" height="11" fill="#9be9a8" rx="2" ry="2"/>
      <rect class="day" x="0" y="94" width="11" height="11" fill="#216e39" rx="2" ry="2"/>
  </g>
  <g transform="translate(600, 0)">
      <rect class="day" x="0" y="4" width="11" height="11" fill="#ebedf0" rx="2" ry="2"/>
      <rect class="day" x="0" y="19" width="11" height="11" fill="#ebedf0" rx="2" ry="2"/>
      <rect class="day" x="0" y="34" width="11" height="11" fill="#ebedf0" rx="2" ry="2"/>
      <rect class="day" x="0" y="49" width="11" height="11" fill="#ebedf0" rx="2" ry="2"/>
      <rect class="day" x="0" y="64" width="11" height="11" fill="#ebedf0" rx="2" ry="2"/>
      <rect class="day" x="0" y="79" width="11" height="11" fill="#ebedf0" rx="2" ry="2"/>
      <rect class="day" x="0" y="94" width="11" height="11" fill="#ebedf0" rx="2" ry="2"/>
  </g>
  <g transform="translate(615, 0)">
      <rect class="day" x="0" y="4" width="11" height="11" fill="#ebedf0" rx="2" ry="2"/>
      <rect class="day" x="0" y="19" width="11" height="11" fill="#ebedf0" rx="2" ry="2"/>
      <rect class="day" x="0" y="34" width="11" height="11" fill="#ebedf0" rx="2" ry="2"/>
      <rect class="day" x="0" y="49" width="11" height="11" fill="#ebedf0" rx="2" ry="2"/>
      <rect class="day" x="0" y="64" width="11" height="11" fill="#ebedf0" rx="2" ry="2"/>
      <rect class="day" x="0" y="79" width="11" height="11" fill="#ebedf0" rx="2" ry="2"/>
      <rect class="day" x="0" y="94" width="11" height="11" fill="#ebedf0" rx="2" ry="2"/>
  </g>
  <g transform="translate(630, 0)">
      <rect class="day" x="0" y="4" width="11" height="11" fill="#ebedf0" rx="2" ry="2"/>
      <rect class="day" x="0" y="19" width="11" height="11" fill="#9be9a8" rx="2" ry="2"/>
      <rect class="day" x="0" y="34" width="11" height="11" fill="#9be9a8" rx="2" ry="2"/>
      <rect class="day" x="0" y="49" width="11" height="11" fill="#9be9a8" rx="2" ry="2"/>
      <rect class="day" x="0" y="64" width="11" height="11" fill="#ebedf0" rx="2" ry="2"/>
      <rect class="day" x="0" y="79" width="11" height="11" fill="#ebedf0" rx="2" ry="2"/>
      <rect class="day" x="0" y="94" width="11" height="11" fill="#ebedf0" rx="2" ry="2"/>
  </g>
  <g transform="translate(645, 0)">
      <rect class="day" x="0" y="4" width="11" height="11" fill="#9be9a8" rx="2" ry="2"/>
      <rect class="day" x="0" y="19" width="11" height="11" fill="#216e39" rx="2" ry="2"/>
      <rect class="day" x="0" y="34" width="11" height="11" fill="#216e39" rx="2" ry="2"/>
      <rect class="day" x="0" y="49" width="11" height="11" fill="#216e39" rx="2" ry="2"/>
      <rect class="day" x="0" y="64" width="11" height="11" fill="#9be9a8" rx="2" ry="2"/>
      <rect class="day" x="0" y="79" width="11" height="11" fill="#ebedf0" rx="2" ry="2"/>
      <rect class="day" x="0" y="94" width="11" height="11" fill="#ebedf0" rx="2" ry="2"/>
  </g>
  <g transform="translate(660, 0)">
      <rect class="day" x="0" y="4" width="11" height="11" fill="#216e39" rx="2" ry="2"/>
      <rect class="day" x="0" y="19" width="11" height="11" fill="#216e39" rx="2" ry="2"/>
      <rect class="day" x="0" y="34" width="11" height="11" fill="#216e39" rx="2" ry="2"/>
      <rect class="day" x="0" y="49" width="11" height="11" fill="#216e39" rx="2" ry="2"/>
      <rect class="day" x="0" y="64" width="11" height="11" fill="#216e39" rx="2" ry="2"/>
      <rect class="day" x="0" y="79" width="11" height="11" fill="#9be9a8" rx="2" ry="2"/>
      <rect class="day" x="0" y="94" width="11" height="11" fill="#ebedf0" rx="2" ry="2"/>
  </g>
  <g transform="translate(675, 0)">
      <rect class="day" x="0" y="4" width="11" height="11" fill="#216e39" rx="2" ry="2"/>
      <rect class="day" x="0" y="19" width="11" height="11" fill="#216e39" rx="2" ry="2"/>
      <rect class="day" x="0" y="34" width="11" height="11" fill="#216e39" rx="2" ry="2"/>
      <rect class="day" x="0" y="49" width="11" height="11" fill="#216e39" rx="2" ry="2"/>
      <rect class="day" x="0" y="64" width="11" height="11" fill="#216e39" rx="2" ry="2"/>
      <rect class="day" x="0" y="79" width="11" height="11" fill="#216e39" rx="2" ry="2"/>
      <rect class="day" x="0" y="94" width="11" height="11" fill="#9be9a8" rx="2" ry="2"/>
  </g>
  <g transform="translate(690, 0)">
      <rect class="day" x="0" y="4" width="11" height="11" fill="#9be9a8" rx="2" ry="2"/>
      <rect class="day" x="0" y="19" width="11" height="11" fill="#216e39" rx="2" ry="2"/>
      <rect class="day" x="0" y="34" width="11" height="11" fill="#216e39" rx="2" ry="2"/>
      <rect class="day" x="0" y="49" width="11" height="11" fill="#216e39" rx="2" ry="2"/>
      <rect class="day" x="0" y="64" width="11" height="11" fill="#216e39" rx="2" ry="2"/>
      <rect class="day" x="0" y="79" width="11" height="11" fill="#216e39" rx="2" ry="2"/>
      <rect class="day" x="0" y="94" width="11" height="11" fill="#216e39" rx="2" ry="2"/>
  </g>
  <g transform="translate(705, 0)">
      <rect class="day" x="0" y="4" width="11" height="11" fill="#216e39" rx="2" ry="2"/>
      <rect class="day" x="0" y="19" width="11" height="11" fill="#216e39" rx="2" ry="2"/>
      <rect class="day" x="0" y="34" width="11" height="11" fill="#216e39" rx="2" ry="2"/>
      <rect class="day" x="0" y="49" width="11" height="11" fill="#216e39" rx="2" ry="2"/>
      <rect class="day" x="0" y="64" width="11" height="11" fill="#216e39" rx="2" ry="2"/>
      <rect class="day" x="0" y="79" width="11" height="11" fill="#216e39" rx="2" ry="2"/>
      <rect class="day" x="0" y="94" width="11" height="11" fill="#ebedf0" rx="2" ry="2"/>
  </g>
  <g transform="translate(720, 0)">
      <rect class="day" x="0" y="4" width="11" height="11" fill="#216e39" rx="2" ry="2"/>
      <rect class="day" x="0" y="19" width="11" height="11" fill="#216e39" rx="2" ry="2"/>
      <rect class="day" x="0" y="34" width="11" height="11" fill="#216e39" rx="2" ry="2"/>
      <rect class="day" x="0" y="49" width="11" height="11" fill="#216e39" rx="2" ry="2"/>
      <rect class="day" x="0" y="64" width="11" height="11" fill="#216e39" rx="2" ry="2"/>
      <rect class="day" x="0" y="79" width="11" height="11" fill="#ebedf0" rx="2" ry="2"/>
      <rect class="day" x="0" y="94" width="11" height="11" fill="#ebedf0" rx="2" ry="2"/>
  </g>
  <g transform="translate(735, 0)">
      <rect class="day" x="0" y="4" width="11" height="11" fill="#ebedf0" rx="2" ry="2"/>
      <rect class="day" x="0" y="19" width="11" height="11" fill="#216e39" rx="2" ry="2"/>
      <rect class="day" x="0" y="34" width="11" height="11" fill="#216e39" rx="2" ry="2"/>
      <rect class="day" x="0" y="49" width="11" height="11" fill="#216e39" rx="2" ry="2"/>
      <rect class="day" x="0" y="64" width="11" height="11" fill="#ebedf0" rx="2" ry="2"/>
      <rect class="day" x="0" y="79" width="11" height="11" fill="#ebedf0" rx="2" ry="2"/>
      <rect class="day" x="0" y="94" width="11" height="11" fill="#ebedf0" rx="2" ry="2"/>
  </g>
  <g transform="translate(750, 0)">
      <rect class="day" x="0" y="4" width="11" height="11" fill="#ebedf0" rx="2" ry="2"/>
      <rect class="day" x="0" y="19" width="11" height="11" fill="#ebedf0" rx="2" ry="2"/>
      <rect class="day" x="0" y="34" width="11" height="11" fill="#ebedf0" rx="2" ry="2"/>
      <rect class="day" x="0" y="49" width="11" height="11" fill="#ebedf0" rx="2" ry="2"/>
      <rect class="day" x="0" y="64" width="11" height="11" fill="#ebedf0" rx="2" ry="2"/>
      <rect class="day" x="0" y="79" width="11" height="11" fill="#ebedf0" rx="2" ry="2"/>
      <rect class="day" x="0" y="94" width="11" height="11" fill="#ebedf0" rx="2" ry="2"/>
  </g>
  <g transform="translate(765, 0)">
      <rect class="day" x="0" y="4" width="11" height="11" fill="#ebedf0" rx="2" ry="2"/>
      <rect class="day" x="0" y="19" width="11" height="11" fill="#ebedf0" rx="2" ry="2"/>
      <rect class="day" x="0" y="34" width="11" height="11" fill="#ebedf0" rx="2" ry="2"/>
      <rect class="day" x="0" y="49" width="11" height="11" fill="#ebedf0" rx="2" ry="2"/>
      <rect class="day" x="0" y="64" width="11" height="11" fill="#ebedf0" rx="2" ry="2"/>
      <rect class="day" x="0" y="79" width="11" height="11" fill="#ebedf0" rx="2" ry="2"/>
      <rect class="day" x="0" y="94" width="11" height="11" fill="#ebedf0" rx="2" ry="2"/>
  </g>
  <g transform="translate(780, 0)">
      <rect class="day" x="0" y="4" width="11" height="11" fill="#ebedf0" rx="2" ry="2"/>
      <rect class="day" x="0" y="19" width="11" height="11" fill="#ebedf0" rx="2" ry="2"/>
      <rect class="day" x="0" y="34" width="11" height="11" fill="#ebedf0" rx="2" ry="2"/>
  </g>
  </g>

</svg>